<?xml version="1.0" ?>
<!-- Uploaded to: SVG Repo, www.svgrepo.com, Generator: SVG Repo Mixer Tools -->
<svg fill="#000000" width="800px" height="800px" viewBox="0 0 24 24" xmlns="http://www.w3.org/2000/svg">
<defs>
<style>.cls-1{fill:none;}</style>
</defs>
<g id="Artwork">
<path d="M18.77,3.49h-16A.77.77,0,0,1,2.77,2h16a.77.77,0,0,1,0,1.54Z"/>
<path d="M21.32,6.59h-16A.78.78,0,0,1,5.32,5h16a.78.78,0,0,1,0,1.55Z"/>
<path d="M16.33,9.65H2.69a.77.77,0,0,1,0-1.54H16.33a.77.77,0,0,1,0,1.54Z"/>
<path d="M15.35,12.73H5.64a.77.77,0,0,1,0-1.54h9.71a.77.77,0,0,1,0,1.54Z"/>
<path d="M13.31,15.82H7.71a.77.77,0,0,1,0-1.54h5.6a.77.77,0,0,1,0,1.54Z"/>
<path d="M14.25,18.9H10.69a.75.75,0,0,1-.74-.77.76.76,0,0,1,.75-.77h3.56a.75.75,0,0,1,.74.78A.75.75,0,0,1,14.25,18.9Z"/>
<path d="M12.7,22H11.13a.77.77,0,0,1,0-1.54H12.7a.77.77,0,0,1,0,1.54Z"/>
<rect class="cls-1" height="24" width="24"/>
</g>
</svg>